<svg version="1" xmlns="http://www.w3.org/2000/svg" width="688" height="688" viewBox="0 0 516.000000 516.000000"><path d="M222 1.5c0 .8-.4 2.3-.9 3.3-.6.9-2.8 7.1-5 13.7s-7.5 21.9-11.6 34c-12.5 36-17.6 50.8-19 55-.7 2.2-5.1 15-9.8 28.5-4.6 13.5-10.2 29.4-12.2 35.5-2.1 6-3.9 11.2-4.1 11.4-.5.5-29.1-10.7-37.9-14.9-1.1-.5-8.7-3.7-17-7-8.2-3.4-18.6-7.6-23-9.5-23.5-9.9-37-15.3-37.3-15-.5.4-.5-7.1.3 118l.7 104-10.4 11.9c-5.6 6.5-10.3 12.3-10.3 12.9 0 .6 1.8 1.6 4 2.3 2.2.7 14.1 4.4 26.5 8.4 12.4 3.9 30.4 9.6 40 12.6 9.6 3.1 18.6 5.9 20 6.4 1.4.5 10.6 3.4 20.5 6.5s19.1 6 20.5 6.5c1.4.5 9.9 3.2 19 6 9.1 2.9 21.9 6.9 28.5 9 6.6 2.1 19.4 6.2 28.5 9.1 9.1 2.8 16.8 5.6 17.2 6.2.3.6 6.1 14.2 12.8 30.4l12.3 29.3 14.9-15.2c8.3-8.4 35.1-35.8 59.8-60.8 24.6-25 53-54 63.1-64.3l18.4-18.8 7.5 2c21.9 5.9 54 15.1 55.3 15.8.5.3.6-3.3.3-7.9-.3-4.5-.8-12.8-1.1-18.3-.3-5.5-.8-12.7-1-16-.2-3.3-.7-10.3-1-15.5-1.1-19.4-1.5-26.7-2-35-.3-4.7-.7-12.3-1-17-.3-4.7-.7-12.3-1-17-.3-4.7-.8-12.3-1-17-.3-4.7-.7-11.9-1-16-.3-4.1-.7-12.5-1-18.5-.3-6.1-.7-13.3-1-16-.4-4.6-1.3-19.4-2-32.5-.7-14.7-1.8-30.5-2-30.8-.3-.4-8.3 3.4-47.9 22.7-21.1 10.3-25.1 12-26.5 10.9-1.9-1.5-11.5-9.4-15.1-12.5-1.4-1.1-12.6-10.5-25-20.8-28.1-23.3-24.5-20.3-38-31.5-6.3-5.2-12.6-10.4-14-11.7-1.4-1.2-9.9-8.3-19-15.8s-17.4-14.4-18.5-15.3c-2.7-2.3-15.5-13-18-15.1-1.1-.9-8.5-7-16.5-13.6S224.9 2 224.2 1.3c-1.7-1.7-2.2-1.6-2.2.2z"/></svg>